<svg xmlns="http://www.w3.org/2000/svg">

    <symbol id="test-js" viewBox="0 0 24 24">
        <path
            d="m5 19a1 1 0 0 0 1 1h12a1 1 0 0 0 1 -1c0-.21-.07-.41-.18-.57l-5.82-10.08v-4.35h-2v4.35l-5.82 10.08c-.11.16-.18.36-.18.57m1 3a3 3 0 0 1 -3 -3c0-.6.18-1.16.5-1.63l5.5-9.56v-1.81a1 1 0 0 1 -1 -1v-1a2 2 0 0 1 2 -2h4a2 2 0 0 1 2 2v1a1 1 0 0 1 -1 1v1.81l5.5 9.56c.32.47.5 1.03.5 1.63a3 3 0 0 1 -3 3h-12m7-6l1.34-1.34 1.93 3.34h-8.54l2.66-4.61 2.61 2.61m-.5-4a.5 .5 0 0 1 .5 .5 .5 .5 0 0 1 -.5 .5 .5 .5 0 0 1 -.5 -.5 .5 .5 0 0 1 .5 -.5z" />
    </symbol>

    <symbol id="json" viewBox="0 0 24 24">
        <path
            d="m5 3h2v2h-2v5a2 2 0 0 1 -2 2 2 2 0 0 1 2 2v5h2v2h-2c-1.07-.27-2-.9-2-2v-4a2 2 0 0 0 -2 -2h-1v-2h1a2 2 0 0 0 2 -2v-4a2 2 0 0 1 2 -2m14 0a2 2 0 0 1 2 2v4a2 2 0 0 0 2 2h1v2h-1a2 2 0 0 0 -2 2v4a2 2 0 0 1 -2 2h-2v-2h2v-5a2 2 0 0 1 2 -2 2 2 0 0 1 -2 -2v-5h-2v-2h2m-7 12a1 1 0 0 1 1 1 1 1 0 0 1 -1 1 1 1 0 0 1 -1 -1 1 1 0 0 1 1 -1m-4 0a1 1 0 0 1 1 1 1 1 0 0 1 -1 1 1 1 0 0 1 -1 -1 1 1 0 0 1 1 -1m8 0a1 1 0 0 1 1 1 1 1 0 0 1 -1 1 1 1 0 0 1 -1 -1 1 1 0 0 1 1 -1z" />
    </symbol>

    <symbol id="todo" viewBox="0 0 24 24">
        <path
            d="M12,2A10,10 0 0,1 22,12A10,10 0 0,1 12,22A10,10 0 0,1 2,12A10,10 0 0,1 12,2M11,16.5L18,9.5L16.59,8.09L11,13.67L7.91,10.59L6.5,12L11,16.5Z" />
    </symbol>

    <symbol id="vuex-store" viewBox="0 0 16 16">
        <g transform="matrix(.8043 0 0 .8043 1.4852 1.5495)" clip-path="url(#clip0)">
            <g>
                <path
                    d="m.2 15.99 6.32-12.75 1.58 3.11v3.27l-3.14 6.37zm15.8.01-6.32-12.75-1.58 3.11v3.27l3.13 6.37z" />
                <path d="m.2.04 3.95 7.98 2.37-4.78-1.58-3.2zm15.8 0-3.95 7.98-2.37-4.78 1.58-3.2z" />
            </g>
        </g>
        <defs>
            <clipPath id="clip0">
                <path d="M0 0h16v16H0z" />
            </clipPath>
        </defs>
    </symbol>

    <symbol id="svg" viewBox="0 0 24 24">
        <path
            d="m5.13 10.71h3.74l-2.65-2.65c-1.01 0-1.83-.82-1.83-1.84a1.83 1.83 0 0 1 1.83-1.83c1.02 0 1.84.82 1.84 1.83l2.65 2.65v-3.74c-.71-.72-.71-1.88 0-2.59.71-.72 1.87-.72 2.58 0 .71.71.71 1.87 0 2.59v3.74l2.66-2.65c0-1.01.81-1.83 1.83-1.83 1.01 0 1.83.82 1.83 1.83 0 1.02-.82 1.84-1.83 1.84l-2.65 2.65h3.74c.72-.71 1.88-.71 2.59 0 .72.71.72 1.87 0 2.58-.71.71-1.87.71-2.59 0h-3.74l2.65 2.66c1.01 0 1.83.81 1.83 1.83a1.83 1.83 0 0 1-1.83 1.83c-1.02 0-1.83-.82-1.83-1.83l-2.66-2.65v3.74c.71.72.71 1.88 0 2.59-.71.72-1.87.72-2.58 0-.71-.71-.71-1.87 0-2.59v-3.74l-2.65 2.65c0 1.01-.82 1.83-1.84 1.83-1.01 0-1.83-.82-1.83-1.83 0-1.02.82-1.83 1.83-1.83l2.65-2.66h-3.74c-.72.71-1.88.71-2.59 0-.72-.71-.72-1.87 0-2.58.71-.71 1.87-.71 2.59 0z" />
    </symbol>

    <symbol id="vercel" viewBox="0 0 24 24">
        <path d="m12 4 9.1428 16h-18.286z" />
    </symbol>

</svg>